<svg width="55" height="59" viewBox="0 0 55 59" fill="none" xmlns="http://www.w3.org/2000/svg">
<path d="M4.2044 6.9793C2.22128 4.31237 3.3781 1.5055 4.2044 0.435433C4.70018 0.0403355 5.44381 -0.305416 5.19593 0.435421C3.70859 2.21338 4.94805 4.59223 5.69172 5.86807C8.36892 6.1644 9.61663 5.74461 9.90584 5.49767C11.7898 0.954004 14.8636 -0.675824 14.8636 0.435433C13.9547 2.4521 13.0229 6.94118 14.6094 6.94118C16.5925 6.94118 17.1875 12.4119 16.351 13.1528C15.5144 13.8936 19.4082 17.9269 21.4327 19.2028C24.7379 19.4497 32.1663 19.9683 35.4384 20.067C39.5286 20.1905 40.3962 22.0425 42.999 21.5486C45.6018 21.0548 46.8413 20.6844 46.8413 22.7833C46.8413 24.4625 45.6018 24.265 44.2384 24.6354C49.692 27.7962 48.9844 29.5 50.0639 35.1303C50.7031 38.1765 51.4272 40.8099 51.0554 42.6619C50.7579 44.1435 53.6557 45.9853 54.5259 49.4527C54.7737 50.4405 55.1952 52.8358 54.8977 54.515C54.5259 56.6139 53.9419 56.3525 52.047 56.367C48.125 56.3971 47.2492 54.0211 48.9844 54.0211C50.3726 54.0211 50.8353 49.968 49.8438 48.5882C47.8606 47.9956 43.324 41.3388 40.3906 36.4412C37.416 35.33 35.8164 39.0054 36.9531 39.9118C38.0412 40.7794 39.9004 45.2548 38.0412 47.7242C36.5539 49.6997 37.8125 52.9265 35.6863 54.0211H28.4975C27.0102 52.4407 30.6046 50.8109 32.5877 50.1935C34.9674 48.4156 33.9288 46.0231 33.5156 45.1176C32.6613 43.2452 32.5119 43.2705 31.3482 41.9211C29.2188 39.4517 29.9707 35.4568 28.3594 37.3088C27.0704 38.7905 25.275 39.1225 23.9116 39.4517C24.0355 41.7153 23.9611 46.8846 22.6721 49.4527C21.3831 52.0209 22.2293 55.9966 21.6806 58.0956C19.5735 58.9599 15.1611 59.9723 14.3678 57.1078C13.3763 53.5272 17.7143 53.5272 17.9622 53.1568C18.1605 52.8605 18.0449 44.1435 17.9622 39.8221C16.0783 35.476 14.2852 37.2704 13.6242 38.7109C13.5002 43.0735 12.9898 52.6382 12.8906 53.5272C12.7915 54.4162 11.4345 55.3381 10.6495 55.9966C8.99691 56.1612 5.41904 56.2682 4.32833 55.3792C3.23762 54.4903 4.28702 53.7741 4.94805 53.5272C6.93117 53.4284 7.73438 52.0456 8.17061 52.0456C10.1537 48.465 6.88324 38.2966 6.01562 37.3088C5.14801 36.3211 6.60427 22.9382 5.31989 22.0426C2.841 20.314 0.981833 21.0548 0.486055 20.8079C-0.313363 20.4097 0.114226 17.383 0.114204 12.4119C0.114192 9.57215 2.71705 8.83134 4.2044 6.9793Z" fill="#251846"/>
</svg>
